{"title":"Veera - The Most Wanted (2013) DtH RiP-[HINDI] _ {shilpa143} =[P","uid":9421673,"size":523666692,"categoryP":"video","categoryS":"movies","magnet":"?xt=urn:btih:30c459723338d6fe416ce721c074abd56623ac2e&amp;dn=Veera+-+The+Most+Wanted+%282013%29+DtH+RiP-%5BHINDI%5D+_+%7Bshilpa143%7D+%3D%5BP&amp;tr=udp%3A%2F%2Ftracker.openbittorrent.com%3A80&amp;tr=udp%3A%2F%2Fopen.demonii.com%3A1337&amp;tr=udp%3A%2F%2Ftracker.coppersurfer.tk%3A6969&amp;tr=udp%3A%2F%2Fexodus.desync.com%3A6969","seeders":1,"leechers":0,"uploader":"shilpa143","files":22,"time":1388602300,"description":"[img]http://s28.postimg.org/3qg9neavx/Veera_the_Most_Wanted_2013_Hindi_Dubbed_Movie_Watch_Online_Watch_Online_Hindi_Movies_Telegu_South_Indian_Movies_Online_Free_New_Movies_All_Hindi_Movies_2013_12.jpg[/img]\n\n\n[img]http://i.cubeupload.com/TaXMhY.png[/img]\n\n[b]General\nUnique ID                                : 52086348592679300949337374163633148463 (0x272F77419B8EFEC115F9EA099BF3922F)\nComplete name                            : Veera - The Most Wanted\nFormat                                   : Matroska\nFormat version                           : Version 2\nFile size                                : 494 MiB\nDuration                                 : 2h 1mn\nOverall bit rate                         : 569 Kbps\nWriting application                      : Lavf53.24.2\nWriting library                          : Lavf53.24.2\n\nVideo\nID                                       : 1\nFormat                                   : AVC\nFormat/Info                              : Advanced Video Codec\nFormat profile                           : &lt;a class=&quot;__cf_email__&quot; href=&quot;/cdn-cgi/l/email-protection&quot; data-cfemail=&quot;d496b5a7b1b8bdbab19498e6fae5&quot;&gt;[email&amp;#160;protected]&lt;/a&gt;&lt;script cf-hash='f9e31' type=&quot;text/javascript&quot;&gt;\n/* &lt;![CDATA[ */!function(){try{var t=&quot;currentScript&quot;in document?document.currentScript:function(){for(var t=document.getElementsByTagName(&quot;script&quot;),e=t.length;e--;)if(t[e].getAttribute(&quot;cf-hash&quot;))return t[e]}();if(t&amp;&amp;t.previousSibling){var e,r,n,i,c=t.previousSibling,a=c.getAttribute(&quot;data-cfemail&quot;);if(a){for(e=&quot;&quot;,r=parseInt(a.substr(0,2),16),n=2;a.length-n;n+=2)i=parseInt(a.substr(n,2),16)^r,e+=String.fromCharCode(i);e=document.createTextNode(e),c.parentNode.replaceChild(e,c)}}}catch(u){}}();/* ]]&gt; */&lt;/script&gt;\nFormat settings, CABAC                   : No\nFormat settings, ReFrames                : 1 frame\nCodec ID                                 : V_MPEG4/ISO/AVC\nDuration                                 : 2h 1mn\nBit rate                                 : 500 Kbps\nWidth                                    : 700 pixels\nHeight                                   : 276 pixels\nDisplay aspect ratio                     : 2.35:1\nOriginal display aspect ratio            : 2.35:1\nFrame rate mode                          : Constant\nFrame rate                               : 23.976 fps\nColor space                              : YUV\nChroma subsampling                       : 4:2:0\nBit depth                                : 8 bits\nScan type                                : Progressive\nBits/(Pixel*Frame)                       : 0.108\nStream size                              : 429 MiB (87%)\nWriting library                          : x264 core 118\n\nAudio\nID                                       : 2\nFormat                                   : MPEG Audio\nFormat version                           : Version 1\nFormat profile                           : Layer 3\nMode                                     : Joint stereo\nMode extension                           : MS Stereo\nCodec ID                                 : A_MPEG/L3\nCodec ID/Hint                            : MP3\nDuration                                 : 2h 1mn\nBit rate mode                            : Constant\nBit rate                                 : 64.0 Kbps\nChannel count                            : 2 channels\nSampling rate                            : 48.0 KHz\nCompression mode                         : Lossy\nStream size                              : 55.6 MiB (11%)\nWriting library                          : LAME3.98.4\nDefault                                  : Yes\nForced                                   : No\n\n[/b]\n\n\n[img]http://i.cubeupload.com/eh1EHE.png[/img]\n\n\n[img]http://s28.postimg.org/iaxci85ul/Veera_The_Most_Wanted.jpg[/img]\n\n\n\n\n\n[img]http://s22.postimg.org/bhay4358x/thanks.jpg[/img]\n\n\n[img]http://i.cubeupload.com/x83wjq.gif[/img]\n\n\n\n[img]http://s28.postimg.org/timog9sil/cooltext1344496247.gif[/img]","torrent":{"xt":"urn:btih:30c459723338d6fe416ce721c074abd56623ac2e","amp;dn":"Veera+-+The+Most+Wanted+%282013%29+DtH+RiP-%5BHINDI%5D+_+%7Bshilpa143%7D+%3D%5BP","amp;tr":["udp%3A%2F%2Ftracker.openbittorrent.com%3A80","udp%3A%2F%2Fopen.demonii.com%3A1337","udp%3A%2F%2Ftracker.coppersurfer.tk%3A6969","udp%3A%2F%2Fexodus.desync.com%3A6969"],"infoHash":"30c459723338d6fe416ce721c074abd56623ac2e","infoHashBuffer":{"type":"Buffer","data":[48,196,89,114,51,56,214,254,65,108,231,33,192,116,171,213,102,35,172,46]},"announce":[],"urlList":[]}}